# xmcd
#
# Track frame offsets: 
#        187
#        15075
#        31075
#        45357
#        73007
#        102825
#        118762
#        132370
#        149012
#
# Disc length: 2533 seconds
#
# Revision: 0
# Processed by: cddbd v1.5.2PL0 Copyright (c) Steve Scherf et al.
# Submitted via: ExactAudioCopy v0.99pb3
#
DISCID=7209e309
DTITLE=Eddie 'Cleanhead' Vinson - Kidney Stew
DYEAR=1983
DGENRE=Blues
TTITLE0=Cleanhead Blues
TTITLE1=Kidney Stew Blues
TTITLE2=Just A Dream (On My Mind)
TTITLE3=Things Ain't What They Used To Be (Take 1)
TTITLE4=Tenderly
TTITLE5=Juice Head Baby
TTITLE6=Alimony Blues
TTITLE7=Somebody's Got To Go
TTITLE8=Things Ain't What They Used To Be (Take 2)
EXTD=
EXTT0=
EXTT1=
EXTT2=
EXTT3=
EXTT4=
EXTT5=
EXTT6=
EXTT7=
EXTT8=
PLAYORDER=
